<?xml version="1.0" encoding="UTF-8"?>
<svg version="1.1" xmlns="http://www.w3.org/2000/svg" width="1024" height="1024">
<path d="M0 0 C337.92 0 675.84 0 1024 0 C1024 337.92 1024 675.84 1024 1024 C686.08 1024 348.16 1024 0 1024 C0 686.08 0 348.16 0 0 Z " fill="#FEFEFE" transform="translate(0,0)"/>
<path d="M0 0 C56.88375 -0.04125 113.7675 -0.0825 172.375 -0.125 C199.30295166 -0.15231201 199.30295166 -0.15231201 226.77490234 -0.18017578 C248.7199707 -0.18920898 248.7199707 -0.18920898 258.99795532 -0.19088745 C266.16634439 -0.19274846 273.33470209 -0.20006763 280.50308228 -0.21115112 C288.78108698 -0.22393123 297.05906172 -0.22966037 305.33707634 -0.2268899 C309.56664665 -0.22569117 313.79615009 -0.22751853 318.02570796 -0.23843026 C338.28015748 -0.28812552 357.97847423 -0.07624602 377.8125 4.625 C378.91505127 4.88514893 380.01760254 5.14529785 381.15356445 5.41333008 C415.21198555 13.79100905 447.00182894 31.17861994 472.73828125 54.92578125 C474.78324667 56.80121586 476.87619475 58.59032533 479 60.375 C517.91731717 94.55388135 540.61988058 149.11121312 544 200 C544.13002754 204.38988576 544.13107739 208.77596303 544.12025452 213.16752625 C544.12110894 214.45099325 544.12196337 215.73446026 544.12284368 217.05682021 C544.12506273 220.58926991 544.12110315 224.12168885 544.11606562 227.65413463 C544.11172381 231.47469951 544.11321018 235.29526282 544.1139679 239.11582947 C544.11449077 245.72527663 544.11136867 252.33471388 544.10573006 258.94415855 C544.09758302 268.50015918 544.09499656 278.05615503 544.09374207 287.61215875 C544.09155657 303.11831363 544.08491013 318.62446322 544.07543945 334.13061523 C544.06625232 349.18823216 544.05918933 364.24584764 544.05493164 379.3034668 C544.05466364 380.24197977 544.05439565 381.18049274 544.05411953 382.1474455 C544.05203995 389.48786431 544.05008308 396.82828315 544.04816496 404.16870201 C544.03874115 440.11247285 544.0186205 476.05623047 544 512 C490.54 512 437.08 512 382 512 C381.97421875 491.3234375 381.9484375 470.646875 381.921875 449.34375 C381.89670918 436.24608491 381.87056531 423.14843274 381.83984375 410.05078125 C381.82375297 403.16878322 381.80790969 396.2867847 381.79248047 389.40478516 C381.79053653 388.54231293 381.78859259 387.6798407 381.78658974 386.79123294 C381.75562181 372.89171973 381.73860927 358.99222302 381.72680578 345.09268183 C381.71436741 330.81372104 381.68680563 316.53484636 381.64538693 302.25593996 C381.62032819 293.45461808 381.60687713 284.65343911 381.60857043 275.85208106 C381.60860033 269.80563769 381.59385779 263.75933921 381.56783572 257.71295238 C381.55327808 254.23147143 381.54490987 250.75028757 381.55419731 247.26878166 C381.58423656 230.23599762 381.52648492 214.0136294 373.25 198.625 C372.90565918 197.96419434 372.56131836 197.30338867 372.20654297 196.62255859 C369.10468519 190.85189004 365.43941442 185.82509368 361 181 C360.25105469 180.15953125 359.50210937 179.3190625 358.73046875 178.453125 C345.01604654 163.83031618 324.6297828 154.70711218 304.53884888 153.85282898 C303.26806488 153.84298477 301.99728088 153.83314056 300.68798828 153.82299805 C299.62794838 153.81314125 299.62794838 153.81314125 298.54649353 153.80308533 C296.22109844 153.78347438 293.89576786 153.77171153 291.5703125 153.76171875 C290.36735849 153.75560546 290.36735849 153.75560546 289.14010239 153.74936867 C284.88767511 153.72855073 280.6352796 153.71423566 276.3828125 153.70483398 C272.03483603 153.69383258 267.68738022 153.65949388 263.33958626 153.61966228 C259.95906768 153.59324556 256.57866793 153.5851198 253.19805527 153.58155251 C251.59799596 153.57674379 249.99793983 153.56529789 248.39798355 153.54651451 C234.59020205 153.39460292 221.12907185 155.0250095 208.75 161.6875 C208.09580078 162.0278125 207.44160156 162.368125 206.76757812 162.71875 C200.33634733 166.16965433 194.58178262 170.28854031 189 175 C187.91138672 175.91845703 187.91138672 175.91845703 186.80078125 176.85546875 C172.44312798 190.0848192 163.51106321 210.74094669 162.62360382 230.05496216 C162.43693416 236.77120745 162.43320841 243.48703876 162.45119452 250.20543098 C162.45619358 253.72806641 162.43798806 257.25059776 162.42277527 260.77319336 C162.39959079 266.85818997 162.39070902 272.94306784 162.39188385 279.02810669 C162.39356119 287.82573504 162.37313643 296.62320624 162.34752855 305.42079246 C162.30655995 319.6984894 162.28316331 333.97615783 162.27099609 348.25390625 C162.25914735 362.11330913 162.23886639 375.9726582 162.20751953 389.83203125 C162.20557402 390.69678416 162.2036285 391.56153708 162.20162404 392.45249462 C162.18634078 399.21666296 162.17057262 405.98083016 162.1546514 412.74499702 C162.07690116 445.82998923 162.04139777 478.91490374 162 512 C108.54 512 55.08 512 0 512 C0 343.04 0 174.08 0 0 Z " fill="#040404" transform="translate(240,256)"/>
<path d="M0 0 C47.025 -0.0825 94.05 -0.165 142.5 -0.25 C164.72569336 -0.30462402 164.72569336 -0.30462402 187.40039062 -0.36035156 C205.57324219 -0.37841797 205.57324219 -0.37841797 214.09606934 -0.3817749 C220.01508028 -0.38548308 225.93393769 -0.40006151 231.85290527 -0.42230225 C238.69967056 -0.44799061 245.54629023 -0.45929157 252.39310393 -0.4537798 C255.88620505 -0.45139786 259.37898192 -0.45483489 262.87202168 -0.47686052 C310.92758422 -0.73513842 352.04300223 12.94826556 388 45 C388.77730469 45.69222656 389.55460937 46.38445312 390.35546875 47.09765625 C411.25071275 66.85108364 425.93187108 94.37004151 433 122 C433.29519531 123.07894531 433.59039063 124.15789062 433.89453125 125.26953125 C438.11493707 141.13243587 438.27690312 156.29813814 438.22705078 172.6184082 C438.226486 175.21142574 438.22680453 177.80444359 438.22793579 180.39746094 C438.22897927 185.95866651 438.22275927 191.51982477 438.21146011 197.08101845 C438.19513462 205.12134374 438.18998993 213.16164639 438.18748413 221.20198645 C438.18311803 234.25014908 438.16983852 247.29828656 438.15087891 260.34643555 C438.13249192 273.01375198 438.11834925 285.68106157 438.10986328 298.34838867 C438.10933783 299.1305531 438.10881239 299.91271754 438.10827102 300.71858392 C438.10566075 304.64287637 438.10313338 308.56716887 438.10064721 312.4914614 C438.07994853 344.99432989 438.04309711 377.49715157 438 410 C419.52 410 401.04 410 382 410 C381.99589111 402.85537109 381.99178223 395.71074219 381.98754883 388.34960938 C381.97083517 365.40029352 381.92956665 342.45107036 381.87314438 319.50182304 C381.86437928 315.92764809 381.85582918 312.35347266 381.84741211 308.77929688 C381.84573305 308.06784478 381.84405398 307.35639269 381.84232404 306.62338144 C381.81576896 295.15503655 381.80656725 283.68674167 381.80395857 272.21836919 C381.80088195 260.42085473 381.77873974 248.62348307 381.73947543 236.82603312 C381.71799475 230.21215348 381.7054815 223.5984622 381.71384621 216.98454285 C381.72146429 210.73981437 381.70525236 204.49557073 381.67193985 198.25093079 C381.6637991 195.97764514 381.66384498 193.7043104 381.67340279 191.43103027 C381.82038855 152.57643386 369.68425267 119.32191439 343 91 C342.08347656 89.98679687 342.08347656 89.98679687 341.1484375 88.953125 C327.95297311 74.91539692 309.92307492 65.46311098 292 59 C290.97777344 58.61972656 289.95554687 58.23945313 288.90234375 57.84765625 C267.6349474 50.57557879 244.95421884 51.52502515 222.79760742 51.60888672 C218.22274795 51.62601415 213.6484155 51.61607862 209.07357502 51.59816933 C205.48795258 51.58721017 201.90245048 51.59083201 198.31682396 51.5985527 C196.63192872 51.60051939 194.94702166 51.59822366 193.26214027 51.59111404 C155.87716273 51.46782174 121.24305546 64.84494215 94.375 91.1875 C66.2111955 119.73843583 56.3564092 156.15356484 56.45410156 195.32348633 C56.44534309 197.68124058 56.4348495 200.03898891 56.42277527 202.39672852 C56.39517323 208.72797595 56.39150483 215.05902697 56.39249516 221.39032578 C56.38966399 227.35753852 56.3684865 233.32467618 56.34752855 239.29184636 C56.30666475 251.09323669 56.28319032 262.89459264 56.27099609 274.69604492 C56.25912844 286.14464614 56.23885684 297.59318286 56.20751953 309.04174805 C56.20558343 309.7501228 56.20364733 310.45849755 56.20165256 311.1883382 C56.19188645 314.74284829 56.18195762 318.2973579 56.17194796 321.85186732 C56.08941463 351.23455331 56.03851346 380.61721837 56 410 C37.52 410 19.04 410 0 410 C0 274.7 0 139.4 0 0 Z " fill="#FDFDFD" transform="translate(293,307)"/>
</svg>
